<svg width="281" height="153" viewBox="0 0 281 153" fill="none" xmlns="http://www.w3.org/2000/svg">
<path d="M0.24 69V2.472H39.888L38.256 13.704H15.984V31.368H35.376V42.6H15.984V69H0.24ZM68.9093 43.56H62.7653V69H47.0213V2.472H68.8133C77.9013 2.472 84.7173 4.136 89.2612 7.464C93.8693 10.792 96.1733 15.88 96.1733 22.728C96.1733 27.016 95.1493 30.6 93.1013 33.48C91.0533 36.296 87.8213 38.696 83.4053 40.68L100.301 69H82.5413L68.9093 43.56ZM62.7653 32.712H69.3893C72.9093 32.712 75.5333 31.912 77.2613 30.312C79.0533 28.712 79.9493 26.184 79.9493 22.728C79.9493 19.528 78.9893 17.192 77.0693 15.72C75.2133 14.248 72.3333 13.512 68.4293 13.512H62.7653V32.712ZM131.933 0.839996C141.405 0.839996 148.765 3.88 154.013 9.96C159.325 16.04 161.981 24.616 161.981 35.688C161.981 42.92 160.765 49.16 158.333 54.408C155.965 59.656 152.509 63.688 147.965 66.504C143.485 69.256 138.141 70.632 131.933 70.632C125.725 70.632 120.381 69.256 115.901 66.504C111.421 63.752 107.965 59.784 105.533 54.6C103.164 49.352 101.98 43.048 101.98 35.688C101.98 28.52 103.164 22.312 105.533 17.064C107.965 11.816 111.421 7.816 115.901 5.064C120.381 2.248 125.725 0.839996 131.933 0.839996ZM131.933 12.36C127.389 12.36 123.997 14.216 121.757 17.928C119.581 21.576 118.493 27.496 118.493 35.688C118.493 43.88 119.613 49.832 121.853 53.544C124.093 57.256 127.453 59.112 131.933 59.112C136.541 59.112 139.933 57.288 142.109 53.64C144.349 49.928 145.469 43.944 145.469 35.688C145.469 27.432 144.349 21.48 142.109 17.832C139.869 14.184 136.477 12.36 131.933 12.36ZM222.692 69H202.628L183.428 17.448C184.068 22.504 184.548 26.984 184.868 30.888C185.252 34.728 185.444 39.304 185.444 44.616V69H171.428V2.472H191.012L210.692 54.12C209.284 45.352 208.58 37.096 208.58 29.352V2.472H222.692V69ZM280.588 2.472L279.052 14.568H262.636V69H246.892V14.568H229.708V2.472H280.588ZM41.04 86.472L39.408 97.704H15.984V113.64H36.432V124.68H15.984V141.672H41.04V153H0.24V86.472H41.04ZM102.035 153H81.9713L62.7713 101.448C63.4113 106.504 63.8913 110.984 64.2113 114.888C64.5953 118.728 64.7873 123.304 64.7873 128.616V153H50.7713V86.472H70.3553L90.0353 138.12C88.6273 129.352 87.9233 121.096 87.9233 113.352V86.472H102.035V153ZM132.956 86.472C143.388 86.472 151.74 88.84 158.012 93.576C164.348 98.248 167.516 106.856 167.516 119.4C167.516 131.752 164.444 140.456 158.3 145.512C152.156 150.504 144.188 153 134.396 153H114.428V86.472H132.956ZM130.172 97.896V141.576H135.356C140.54 141.576 144.476 139.976 147.164 136.776C149.852 133.512 151.196 127.72 151.196 119.4C151.196 113.704 150.524 109.288 149.18 106.152C147.836 103.016 146.012 100.872 143.708 99.72C141.404 98.504 138.556 97.896 135.164 97.896H130.172Z" fill="#1A2121" fill-opacity="0.2"/>
</svg>
