<svg width="40" height="40" viewBox="0 0 40 40" fill="none" xmlns="http://www.w3.org/2000/svg">
<g clip-path="url(#clip0_8_49)">
<path d="M19.836 13.8529C18.588 14.3051 16.752 14.5311 14.328 14.5311C15.576 15.0048 16.488 15.5861 17.064 16.275C17.64 16.9639 17.928 17.8574 17.928 18.9554C17.928 20.0534 17.604 21.0438 16.956 21.9265C16.308 22.7876 15.372 23.4658 14.148 23.961C12.948 24.4562 11.532 24.7038 9.9 24.7038C9.132 24.7038 8.4 24.6392 7.704 24.51C7.512 24.5961 7.356 24.7361 7.236 24.9298C7.14 25.1021 7.092 25.2851 7.092 25.4788C7.092 25.8018 7.224 26.0601 7.488 26.2539C7.776 26.4261 8.34 26.5122 9.18 26.5122H12.06C13.524 26.5122 14.808 26.7275 15.912 27.1581C17.016 27.5887 17.868 28.1808 18.468 28.9343C19.068 29.6878 19.368 30.5382 19.368 31.4855C19.368 33.2725 18.504 34.6611 16.776 35.6515C15.072 36.6634 12.6 37.1693 9.36 37.1693C7.032 37.1693 5.196 36.9432 3.852 36.4911C2.508 36.0605 1.56 35.4469 1.008 34.6504C0.480003 33.8538 0.216003 32.8526 0.216003 31.647H5.328C5.328 32.1637 5.436 32.5728 5.652 32.8742C5.892 33.1756 6.312 33.4016 6.912 33.5524C7.512 33.7031 8.376 33.7784 9.504 33.7784C11.064 33.7784 12.144 33.6062 12.744 33.2617C13.344 32.9388 13.644 32.4651 13.644 31.8408C13.644 31.3241 13.416 30.915 12.96 30.6136C12.504 30.3122 11.82 30.1615 10.908 30.1615H8.136C6.168 30.1615 4.692 29.8493 3.708 29.2249C2.748 28.5791 2.268 27.7609 2.268 26.7706C2.268 26.1462 2.472 25.5434 2.88 24.9621C3.288 24.3593 3.84 23.8641 4.536 23.4766C3.336 22.8953 2.46 22.2171 1.908 21.4421C1.38 20.6455 1.116 19.6874 1.116 18.5679C1.116 16.6518 1.884 15.1339 3.42 14.0144C4.956 12.8734 6.984 12.3028 9.504 12.3028C11.424 12.3459 13.044 12.1736 14.364 11.7861C15.708 11.3986 17.088 10.8281 18.504 10.0745L19.836 13.8529ZM9.648 15.6614C8.76 15.6614 8.052 15.9198 7.524 16.4365C7.02 16.9316 6.768 17.6206 6.768 18.5033C6.768 19.4291 7.02 20.1503 7.524 20.667C8.052 21.1622 8.76 21.4098 9.648 21.4098C10.584 21.4098 11.292 21.1622 11.772 20.667C12.276 20.1718 12.528 19.4291 12.528 18.4387C12.528 16.5872 11.568 15.6614 9.648 15.6614Z" fill="url(#paint0_linear_8_49)"/>
<path d="M34.668 13.4259C35.652 13.4259 36.612 13.5659 37.548 13.8458L36.864 20.1431H33.984V16.6554C32.664 16.6769 31.512 17.1505 30.528 18.0763C29.568 19.0021 28.8 20.3046 28.224 21.9839V28.3135H32.04V30.8971H21.384V28.3135H24.192V16.4293H21.384V13.8458H27.252L27.972 17.7856C28.716 16.3216 29.616 15.2344 30.672 14.5239C31.752 13.7919 33.084 13.4259 34.668 13.4259Z" fill="url(#paint1_linear_8_49)"/>
</g>
<defs>
<linearGradient id="paint0_linear_8_49" x1="10.1639" y1="1.13523e-06" x2="10.1639" y2="38.8235" gradientUnits="userSpaceOnUse">
<stop stop-color="#7EE9F0"/>
<stop offset="1" stop-color="#25B7AE"/>
</linearGradient>
<linearGradient id="paint1_linear_8_49" x1="28.8196" y1="0.897054" x2="28.8196" y2="39.7206" gradientUnits="userSpaceOnUse">
<stop stop-color="#7EE9F0"/>
<stop offset="1" stop-color="#25B7AE"/>
</linearGradient>
<clipPath id="clip0_8_49">
<rect width="40" height="40" fill="white"/>
</clipPath>
</defs>
</svg>
