<svg width="151" height="197" viewBox="0 0 151 197" fill="none" xmlns="http://www.w3.org/2000/svg">
<path d="M69.288 59.56C69.288 65.6187 67.9653 71.0373 65.32 75.816C62.76 80.5947 58.8773 84.3493 53.672 87.08C48.4667 89.8107 42.1093 91.176 34.6 91.176C23.336 91.176 14.76 88.3173 8.872 82.6C2.984 76.8827 0.0400004 69.2027 0.0400004 59.56V0.295998H21.032V58.664C21.032 64.3813 22.0987 68.648 24.232 71.464C26.4507 74.1947 29.9067 75.56 34.6 75.56C39.3787 75.56 42.8347 74.1947 44.968 71.464C47.1867 68.648 48.296 64.3813 48.296 58.664V0.295998H69.288V59.56ZM124.655 41.128L150.255 89H127.343L112.111 55.208L97.135 89H74.863L99.695 41.896L76.783 0.295998H99.567L112.367 28.712L125.807 0.295998H148.079L124.655 41.128ZM69.288 164.56C69.288 170.619 67.9653 176.037 65.32 180.816C62.76 185.595 58.8773 189.349 53.672 192.08C48.4667 194.811 42.1093 196.176 34.6 196.176C23.336 196.176 14.76 193.317 8.872 187.6C2.984 181.883 0.0400004 174.203 0.0400004 164.56V105.296H21.032V163.664C21.032 169.381 22.0987 173.648 24.232 176.464C26.4507 179.195 29.9067 180.56 34.6 180.56C39.3787 180.56 42.8347 179.195 44.968 176.464C47.1867 173.648 48.296 169.381 48.296 163.664V105.296H69.288V164.56ZM105.687 105.296V194H84.695V105.296H105.687Z" fill="#1A2121" fill-opacity="0.2"/>
</svg>
